<svg width="37" height="38" viewBox="0 0 37 38" fill="none" xmlns="http://www.w3.org/2000/svg">
<g id="call">
<path id="Rectangle 77" d="M36.5 33V29.7081C36.5 28.0725 35.5042 26.6017 33.9856 25.9942L29.9173 24.3669C27.9857 23.5943 25.7844 24.4312 24.854 26.292L24.5 27C24.5 27 19.5 26 15.5 22C11.5 18 10.5 13 10.5 13L11.208 12.646C13.0688 11.7156 13.9057 9.51427 13.1331 7.58271L11.5058 3.51444C10.8983 1.99581 9.42749 1 7.79187 1H4.5C2.29086 1 0.5 2.79086 0.5 5C0.5 22.6731 14.8269 37 32.5 37C34.7091 37 36.5 35.2091 36.5 33Z" fill="white" fill-opacity="0.5" stroke="white" stroke-opacity="0.7" stroke-linejoin="round"/>
</g>
</svg>
