<svg width="22" height="16" viewBox="0 0 22 16" fill="none" xmlns="http://www.w3.org/2000/svg">
<g id="Group 11">
<path id="Vector" d="M11 4.8172C10.1575 4.82276 9.3512 5.15988 8.75551 5.75556C8.15982 6.35125 7.8227 7.15758 7.81714 8C7.81714 9.74205 9.25789 11.1828 11 11.1828C12.7409 11.1828 14.1828 9.74205 14.1828 8C14.1828 6.25901 12.7409 4.8172 11 4.8172Z" fill="#767676"/>
<path id="Vector_2" d="M11 0.573303C2.90184 0.573303 0.468052 7.59349 0.445772 7.66457L0.333313 7.99983L0.444712 8.33508C0.468052 8.40617 2.90184 15.4264 11 15.4264C19.0981 15.4264 21.5319 8.40617 21.5542 8.33508L21.6666 7.99983L21.5552 7.66457C21.5319 7.59349 19.0981 0.573303 11 0.573303ZM11 13.3045C5.3229 13.3045 3.12358 9.22414 2.59099 7.99983C3.1257 6.77127 5.32608 2.69517 11 2.69517C16.6771 2.69517 18.8764 6.77551 19.409 7.99983C18.8743 9.22839 16.6739 13.3045 11 13.3045Z" fill="#C0C0C0"/>
</g>
</svg>
